<svg xmlns="http://www.w3.org/2000/svg" viewBox="0 0 377.93 219.29"><defs><style>.cls-1{fill:none;stroke:#b2b1b1;stroke-linecap:round;stroke-linejoin:round;stroke-width:20px;}.cls-2{fill:#fff;}.cls-3{fill:#dadada;}</style></defs><g id="Layer_2" data-name="Layer 2"><g id="Layer_1-2" data-name="Layer 1"><path class="cls-1" d="M134.81,47.73h13.35c.6,5.4,4.13,7.65,10.5,7.65,4.35,0,8.63-1.57,8.63-5.62,0-4.28-4.35-5.18-11.7-7-9.3-2.18-19.13-5-19.13-16.28,0-11.47,9.3-16.5,21.3-16.5,11.63,0,20.63,5.25,21.16,16.5h-13c-.53-4.12-3.68-6.45-8.63-6.45-4.65,0-7.73,2-7.73,5,0,3.75,4.13,4.65,12.16,6.45,10,2.32,19,5.4,19,16.88,0,11.25-9.6,17.47-22,17.47C144.48,65.88,135.11,59.58,134.81,47.73Z"/><path class="cls-1" d="M185.36,11h12.23v9.9H185.36Zm0,15.22h12.23V64.61H185.36Z"/><path class="cls-1" d="M214.39,44.43,202.31,26.2h14l5.7,9.9h.15l5.4-9.9h12.82l-11.4,18.08L242,64.61H227.82l-6.3-11.48h-.15l-7,11.48H201Z"/><path class="cls-1" d="M10,77H22.23v20h.22c2.78-3.68,6.08-5.85,11.4-5.85,8.4,0,13.36,6,13.36,14.55v25H35V108.1c0-4-2-6.82-6-6.82s-6.75,3.38-6.75,8.1v21.23H10Z"/><path class="cls-1" d="M51,119.88c0-8.47,6.75-11,14.7-12.07,7.21-.9,9.76-1.65,9.76-4.28s-1.58-4.13-5.25-4.13c-3.91,0-5.86,1.73-6.23,4.95H52.68c.3-7.12,5.77-13.2,17.4-13.2,5.78,0,9.68,1,12.45,3.15,3.3,2.4,4.88,6.15,4.88,11v19.36c0,3.07.3,4.8,1.35,5.47v.53H76.91a10.76,10.76,0,0,1-1.28-4.28h-.15c-2.25,3.23-5.62,5.25-11.4,5.25C56.43,131.58,51,127.46,51,119.88Zm24.76-3v-4.57a30.17,30.17,0,0,1-6.3,2c-4.73,1-6.68,2.25-6.68,5.18S65,123.78,68,123.78C72.56,123.78,75.71,121,75.71,116.88Z"/><path class="cls-1" d="M93.33,92.2h11.78v5.25h.22c2.85-4.12,6.53-6.37,11.85-6.37,8.4,0,13.36,6,13.36,14.55v25H118.31V108.1c0-4-2-6.82-6-6.82s-6.75,3.38-6.75,8.1v21.23H93.33Z"/><path class="cls-1" d="M134.36,111.41c0-12,6.9-20.33,16.8-20.33,5.4,0,8.48,2.25,10.73,5.47h.22V77h12.23v53.63h-11.7v-5.18h-.15a12.65,12.65,0,0,1-11.33,6.38C141.33,131.81,134.36,124.23,134.36,111.41Zm28,0c0-6.46-2.62-11.11-7.95-11.11-4.88,0-7.73,4.5-7.73,11,0,6.67,2.85,10.87,7.58,10.87C159.41,122.13,162.41,117.71,162.41,111.41Z"/><path class="cls-1" d="M180.19,92.2h11.7v5.48h.22a12.8,12.8,0,0,1,11.63-6.6,11.49,11.49,0,0,1,10.8,6.75h.15a13.67,13.67,0,0,1,12.08-6.75c8.7,0,13,5.92,13,14.55v25H227.59v-22.8c0-4.13-1.72-6.53-5.4-6.53-3.9,0-6.07,3.22-6.07,7.8v21.53H203.89v-22.8c0-4.13-1.72-6.53-5.4-6.53-3.83,0-6.08,3.22-6.08,7.8v21.53H180.19Z"/><path class="cls-1" d="M243.57,119.88c0-8.47,6.75-11,14.7-12.07,7.2-.9,9.75-1.65,9.75-4.28s-1.58-4.13-5.25-4.13c-3.9,0-5.85,1.73-6.23,4.95H245.29c.3-7.12,5.78-13.2,17.4-13.2,5.78,0,9.68,1,12.46,3.15,3.3,2.4,4.87,6.15,4.87,11v19.36c0,3.07.3,4.8,1.35,5.47v.53H269.52a10.76,10.76,0,0,1-1.28-4.28h-.15c-2.25,3.23-5.62,5.25-11.4,5.25C249,131.58,243.57,127.46,243.57,119.88Zm24.75-3v-4.57a30.17,30.17,0,0,1-6.3,2c-4.73,1-6.68,2.25-6.68,5.18s2.25,4.27,5.25,4.27C265.17,123.78,268.32,121,268.32,116.88Z"/><path class="cls-1" d="M284.22,111.41c0-12,6.9-20.33,16.8-20.33,5.4,0,8.48,2.25,10.73,5.47H312V77H324.2v53.63H312.5v-5.18h-.15A12.65,12.65,0,0,1,301,131.81C291.19,131.81,284.22,124.23,284.22,111.41Zm28,0c0-6.46-2.62-11.11-7.95-11.11-4.87,0-7.73,4.5-7.73,11,0,6.67,2.86,10.87,7.58,10.87C309.27,122.13,312.27,117.71,312.27,111.41Z"/><path class="cls-1" d="M328.32,111.33c0-11.48,8-20.25,19.73-20.25a18.89,18.89,0,0,1,13.13,4.8c4.57,4.2,6.82,10.87,6.75,18.68H340.32c.75,5.17,3.6,8.4,8.63,8.4,3.22,0,5.33-1.43,6.38-3.83h11.92a15.61,15.61,0,0,1-6.45,9.08,20.28,20.28,0,0,1-12,3.52C336.12,131.73,328.32,123,328.32,111.33Zm27.23-4c-.45-4.58-3.3-7.5-7.28-7.5-4.65,0-7,2.92-7.87,7.5Z"/><path class="cls-1" d="M101.24,184.16h11.55c.45,3.82,3,5.7,7,5.7,3.68,0,6-1.35,6-3.83,0-3.45-4.65-3.82-9.76-4.72-6.67-1.13-13.8-2.93-13.8-11.93,0-8.1,7.5-12.3,16.58-12.3,10.88,0,16.73,4.72,17.33,12.3H125c-.45-3.45-2.78-4.5-6.16-4.5-3,0-5.32,1.12-5.32,3.52,0,2.7,4.35,3.08,9.23,4,6.75,1.12,14.7,2.85,14.7,12.68,0,8.4-7.43,12.75-17.48,12.75C108.67,197.81,101.62,192.63,101.24,184.16Z"/><path class="cls-1" d="M143.25,186.48V165.85h-5.11V158.2h5.11V146.05h11.92V158.2h7v7.65h-7v18c0,3,1.65,3.75,4.28,3.75,1.05,0,2.25-.08,2.7-.08v8.93a28.25,28.25,0,0,1-6.68.6C148.35,197.06,143.25,194.73,143.25,186.48Z"/><path class="cls-1" d="M164.47,177.33c0-11.48,8-20.25,19.73-20.25a18.89,18.89,0,0,1,13.13,4.8c4.57,4.2,6.82,10.87,6.75,18.68H176.47c.75,5.17,3.61,8.4,8.63,8.4,3.23,0,5.33-1.43,6.38-3.83H203.4a15.61,15.61,0,0,1-6.45,9.08,20.28,20.28,0,0,1-12,3.52C172.27,197.73,164.47,189,164.47,177.33Zm27.23-4.05c-.45-4.58-3.3-7.5-7.27-7.5-4.65,0-7.05,2.92-7.88,7.5Z"/><path class="cls-1" d="M208.2,158.2h11.7v4.65h.23a13.94,13.94,0,0,1,11.62-5.77c10.21,0,16.43,8.77,16.43,20.33,0,12.45-6.67,20.4-16.72,20.4-5,0-8.48-1.95-10.88-5.18h-.15v16.66H208.2Zm27.61,19.66c0-6.61-2.48-11-7.73-11s-8,4.73-8,11,3,10.5,8.25,10.5C233,188.36,235.81,184.38,235.81,177.86Z"/><path class="cls-1" d="M250,184.16h11.55c.45,3.82,3,5.7,7.05,5.7,3.68,0,6-1.35,6-3.83,0-3.45-4.65-3.82-9.75-4.72-6.67-1.13-13.8-2.93-13.8-11.93,0-8.1,7.5-12.3,16.58-12.3,10.87,0,16.72,4.72,17.32,12.3H273.68c-.45-3.45-2.77-4.5-6.15-4.5-3,0-5.32,1.12-5.32,3.52,0,2.7,4.35,3.08,9.22,4,6.75,1.12,14.7,2.85,14.7,12.68,0,8.4-7.42,12.75-17.47,12.75C257.41,197.81,250.35,192.63,250,184.16Z"/><path class="cls-2" d="M158.74,67.38c-15.61,0-25.12-7.33-25.43-19.61a1.49,1.49,0,0,1,1.5-1.54h13.35a1.5,1.5,0,0,1,1.49,1.34c.49,4.42,3.19,6.31,9,6.31,1.19,0,7.13-.2,7.13-4.12,0-2.72-2.39-3.53-9.77-5.33l-.79-.19C147.17,42.35,135,39.5,135,26.5c0-11.27,8.52-18,22.8-18,13.66,0,22.13,6.7,22.65,17.93a1.52,1.52,0,0,1-.41,1.11,1.51,1.51,0,0,1-1.08.46h-13a1.5,1.5,0,0,1-1.49-1.31c-.54-4.25-4.18-5.14-7.14-5.14-3.72,0-6.22,1.42-6.22,3.53,0,2.42,3.12,3.22,10.81,5l.17,0c10.2,2.38,20.15,5.76,20.15,18.35C182.22,59.76,172.78,67.38,158.74,67.38Z"/><path class="cls-3" d="M157.76,10c11.63,0,20.63,5.25,21.16,16.5h-13c-.53-4.12-3.68-6.45-8.63-6.45-4.65,0-7.73,2-7.73,5,0,3.75,4.13,4.65,12.16,6.45,10,2.32,19,5.4,19,16.88,0,11.25-9.6,17.47-22,17.47-14.26,0-23.63-6.3-23.93-18.15h13.35c.6,5.4,4.13,7.65,10.5,7.65,4.35,0,8.63-1.57,8.63-5.62,0-4.28-4.35-5.18-11.7-7-9.3-2.18-19.13-5-19.13-16.28,0-11.47,9.3-16.5,21.3-16.5m0-3c-15.22,0-24.3,7.29-24.3,19.5,0,14.18,13.42,17.33,21.44,19.2l.77.19A38.7,38.7,0,0,1,163,48.11c1.26.66,1.26,1.09,1.26,1.65,0,2.55-5,2.62-5.63,2.62-6.43,0-7.24-2.46-7.52-5a3,3,0,0,0-3-2.67H134.81a3,3,0,0,0-3,3.08c.33,13.19,10.4,21.07,26.93,21.07,14.94,0,25-8.23,25-20.47,0-12.73-9.81-16.83-17.63-18.91h12.84a3,3,0,0,0,3-3.14C181.35,14.42,172.1,7,157.76,7Zm6.63,22.07-2-.46-.19-.05a51.84,51.84,0,0,1-8.38-2.27c-1.27-.58-1.27-.89-1.27-1.21,0-1.16,2-2,4.73-2,5.16,0,5.53,2.88,5.65,3.83a3,3,0,0,0,1.43,2.19Z"/><path class="cls-2" d="M185.36,66.11a1.5,1.5,0,0,1-1.5-1.5V26.2a1.5,1.5,0,0,1,1.5-1.5h12.23a1.5,1.5,0,0,1,1.5,1.5V64.61a1.5,1.5,0,0,1-1.5,1.5Zm0-43.73a1.5,1.5,0,0,1-1.5-1.5V11a1.5,1.5,0,0,1,1.5-1.5h12.23a1.5,1.5,0,0,1,1.5,1.5v9.9a1.5,1.5,0,0,1-1.5,1.5Z"/><path class="cls-3" d="M197.59,11v9.9H185.36V11h12.23m0,15.22V64.61H185.36V26.2h12.23m0-18.22H185.36a3,3,0,0,0-3,3v9.9A3,3,0,0,0,184,23.54a3,3,0,0,0-1.62,2.66V64.61a3,3,0,0,0,3,3h12.23a3,3,0,0,0,3-3V26.2A3,3,0,0,0,199,23.54a3,3,0,0,0,1.62-2.66V11a3,3,0,0,0-3-3Z"/><path class="cls-2" d="M227.82,66.11a1.51,1.51,0,0,1-1.32-.78L221.38,56l-5.71,9.39a1.52,1.52,0,0,1-1.28.72H201a1.51,1.51,0,0,1-1.32-.79,1.49,1.49,0,0,1,.07-1.54l12.8-19.35L201.06,27a1.5,1.5,0,0,1,1.25-2.33h14a1.52,1.52,0,0,1,1.3.75L222,33.17l4.19-7.69a1.5,1.5,0,0,1,1.32-.78h12.82a1.5,1.5,0,0,1,1.27,2.3L230.72,44.27,243.26,63.8a1.52,1.52,0,0,1,.05,1.53,1.5,1.5,0,0,1-1.32.78Z"/><path class="cls-3" d="M240.34,26.2h0m0,0-11.4,18.08L242,64.61H227.82l-6.3-11.48h-.15l-7,11.48H201l13.35-20.18L202.31,26.2h14l5.7,9.9h.15l5.4-9.9h12.82m0-3H227.52a3,3,0,0,0-2.64,1.57L222,30.1l-3.1-5.39a3,3,0,0,0-2.6-1.51h-14a3,3,0,0,0-2.5,4.66l11,16.57L198.54,63a3,3,0,0,0,2.5,4.66h13.35A3,3,0,0,0,217,66.17L221.31,59l3.88,7a3,3,0,0,0,2.63,1.56H242A3,3,0,0,0,244.52,63l-12-18.72,10.33-16.38a3,3,0,0,0,.52-1.69,3,3,0,0,0-3-3Zm0,6h0Z"/><path class="cls-2" d="M10,77H22.23v20h.22c2.78-3.68,6.08-5.85,11.4-5.85,8.4,0,13.36,6,13.36,14.55v25H35V108.1c0-4-2-6.82-6-6.82s-6.75,3.38-6.75,8.1v21.23H10Z"/><path class="cls-2" d="M51,119.88c0-8.47,6.75-11,14.7-12.07,7.21-.9,9.76-1.65,9.76-4.28s-1.58-4.13-5.25-4.13c-3.91,0-5.86,1.73-6.23,4.95H52.68c.3-7.12,5.77-13.2,17.4-13.2,5.78,0,9.68,1,12.45,3.15,3.3,2.4,4.88,6.15,4.88,11v19.36c0,3.07.3,4.8,1.35,5.47v.53H76.91a10.76,10.76,0,0,1-1.28-4.28h-.15c-2.25,3.23-5.62,5.25-11.4,5.25C56.43,131.58,51,127.46,51,119.88Zm24.76-3v-4.57a30.17,30.17,0,0,1-6.3,2c-4.73,1-6.68,2.25-6.68,5.18S65,123.78,68,123.78C72.56,123.78,75.71,121,75.71,116.88Z"/><path class="cls-2" d="M93.33,92.2h11.78v5.25h.22c2.85-4.12,6.53-6.37,11.85-6.37,8.4,0,13.36,6,13.36,14.55v25H118.31V108.1c0-4-2-6.82-6-6.82s-6.75,3.38-6.75,8.1v21.23H93.33Z"/><path class="cls-2" d="M134.36,111.41c0-12,6.9-20.33,16.8-20.33,5.4,0,8.48,2.25,10.73,5.47h.22V77h12.23v53.63h-11.7v-5.18h-.15a12.65,12.65,0,0,1-11.33,6.38C141.33,131.81,134.36,124.23,134.36,111.41Zm28,0c0-6.46-2.62-11.11-7.95-11.11-4.88,0-7.73,4.5-7.73,11,0,6.67,2.85,10.87,7.58,10.87C159.41,122.13,162.41,117.71,162.41,111.41Z"/><path class="cls-2" d="M180.19,92.2h11.7v5.48h.22a12.8,12.8,0,0,1,11.63-6.6,11.49,11.49,0,0,1,10.8,6.75h.15a13.67,13.67,0,0,1,12.08-6.75c8.7,0,13,5.92,13,14.55v25H227.59v-22.8c0-4.13-1.72-6.53-5.4-6.53-3.9,0-6.07,3.22-6.07,7.8v21.53H203.89v-22.8c0-4.13-1.72-6.53-5.4-6.53-3.83,0-6.08,3.22-6.08,7.8v21.53H180.19Z"/><path class="cls-2" d="M243.57,119.88c0-8.47,6.75-11,14.7-12.07,7.2-.9,9.75-1.65,9.75-4.28s-1.58-4.13-5.25-4.13c-3.9,0-5.85,1.73-6.23,4.95H245.29c.3-7.12,5.78-13.2,17.4-13.2,5.78,0,9.68,1,12.46,3.15,3.3,2.4,4.87,6.15,4.87,11v19.36c0,3.07.3,4.8,1.35,5.47v.53H269.52a10.76,10.76,0,0,1-1.28-4.28h-.15c-2.25,3.23-5.62,5.25-11.4,5.25C249,131.58,243.57,127.46,243.57,119.88Zm24.75-3v-4.57a30.17,30.17,0,0,1-6.3,2c-4.73,1-6.68,2.25-6.68,5.18s2.25,4.27,5.25,4.27C265.17,123.78,268.32,121,268.32,116.88Z"/><path class="cls-2" d="M284.22,111.41c0-12,6.9-20.33,16.8-20.33,5.4,0,8.48,2.25,10.73,5.47H312V77H324.2v53.63H312.5v-5.18h-.15A12.65,12.65,0,0,1,301,131.81C291.19,131.81,284.22,124.23,284.22,111.41Zm28,0c0-6.46-2.62-11.11-7.95-11.11-4.87,0-7.73,4.5-7.73,11,0,6.67,2.86,10.87,7.58,10.87C309.27,122.13,312.27,117.71,312.27,111.41Z"/><path class="cls-2" d="M328.32,111.33c0-11.48,8-20.25,19.73-20.25a18.89,18.89,0,0,1,13.13,4.8c4.57,4.2,6.82,10.87,6.75,18.68H340.32c.75,5.17,3.6,8.4,8.63,8.4,3.22,0,5.33-1.43,6.38-3.83h11.92a15.61,15.61,0,0,1-6.45,9.08,20.28,20.28,0,0,1-12,3.52C336.12,131.73,328.32,123,328.32,111.33Zm27.23-4c-.45-4.58-3.3-7.5-7.28-7.5-4.65,0-7,2.92-7.87,7.5Z"/><path class="cls-2" d="M101.24,184.16h11.55c.45,3.82,3,5.7,7,5.7,3.68,0,6-1.35,6-3.83,0-3.45-4.65-3.82-9.76-4.72-6.67-1.13-13.8-2.93-13.8-11.93,0-8.1,7.5-12.3,16.58-12.3,10.88,0,16.73,4.72,17.33,12.3H125c-.45-3.45-2.78-4.5-6.16-4.5-3,0-5.32,1.12-5.32,3.52,0,2.7,4.35,3.08,9.23,4,6.75,1.12,14.7,2.85,14.7,12.68,0,8.4-7.43,12.75-17.48,12.75C108.67,197.81,101.62,192.63,101.24,184.16Z"/><path class="cls-2" d="M143.25,186.48V165.85h-5.11V158.2h5.11V146.05h11.92V158.2h7v7.65h-7v18c0,3,1.65,3.75,4.28,3.75,1.05,0,2.25-.08,2.7-.08v8.93a28.25,28.25,0,0,1-6.68.6C148.35,197.06,143.25,194.73,143.25,186.48Z"/><path class="cls-2" d="M164.47,177.33c0-11.48,8-20.25,19.73-20.25a18.89,18.89,0,0,1,13.13,4.8c4.57,4.2,6.82,10.87,6.75,18.68H176.47c.75,5.17,3.61,8.4,8.63,8.4,3.23,0,5.33-1.43,6.38-3.83H203.4a15.61,15.61,0,0,1-6.45,9.08,20.28,20.28,0,0,1-12,3.52C172.27,197.73,164.47,189,164.47,177.33Zm27.23-4.05c-.45-4.58-3.3-7.5-7.27-7.5-4.65,0-7.05,2.92-7.88,7.5Z"/><path class="cls-2" d="M208.2,158.2h11.7v4.65h.23a13.94,13.94,0,0,1,11.62-5.77c10.21,0,16.43,8.77,16.43,20.33,0,12.45-6.67,20.4-16.72,20.4-5,0-8.48-1.95-10.88-5.18h-.15v16.66H208.2Zm27.61,19.66c0-6.61-2.48-11-7.73-11s-8,4.73-8,11,3,10.5,8.25,10.5C233,188.36,235.81,184.38,235.81,177.86Z"/><path class="cls-2" d="M250,184.16h11.55c.45,3.82,3,5.7,7.05,5.7,3.68,0,6-1.35,6-3.83,0-3.45-4.65-3.82-9.75-4.72-6.67-1.13-13.8-2.93-13.8-11.93,0-8.1,7.5-12.3,16.58-12.3,10.87,0,16.72,4.72,17.32,12.3H273.68c-.45-3.45-2.77-4.5-6.15-4.5-3,0-5.32,1.12-5.32,3.52,0,2.7,4.35,3.08,9.22,4,6.75,1.12,14.7,2.85,14.7,12.68,0,8.4-7.42,12.75-17.47,12.75C257.41,197.81,250.35,192.63,250,184.16Z"/></g></g></svg>