<svg xmlns="http://www.w3.org/2000/svg" viewBox="0 0 502.21 262.31"><defs><style>.cls-1{fill:#e52421;}.cls-1,.cls-2{stroke:#b2b2b2;stroke-linejoin:round;stroke-width:20px;}.cls-2{fill:#187eab;}.cls-3{fill:#fff;}.cls-4{fill:#dadada;}</style></defs><g id="Layer_2" data-name="Layer 2"><g id="Layer_1-2" data-name="Layer 1"><path class="cls-1" d="M133.07,35.64H118.68V24.48c8.91-.29,16.15-4.5,17.82-13.6h13.11V78.51H133.07Z"/><path class="cls-1" d="M158.22,45c0-21.34,12-35,29.66-35,18,0,29.65,13.7,29.65,35s-11.94,35-29.75,35C170.36,80.07,158.22,66.37,158.22,45Zm42.28,0c0-13-3.62-22.22-12.62-22.22S175.15,31.92,175.15,45s3.72,22.12,12.73,22.12S200.5,58.25,200.5,45Z"/><path class="cls-1" d="M222.13,45c0-21.34,12-35,29.66-35,18,0,29.65,13.7,29.65,35s-11.94,35-29.75,35C234.27,80.07,222.13,66.37,222.13,45Zm42.28,0c0-13-3.62-22.22-12.62-22.22S239.06,31.92,239.06,45s3.72,22.12,12.73,22.12S264.41,58.25,264.41,45Z"/><path class="cls-1" d="M285.65,29.67c0-11.94,7.54-19.67,17.91-19.67,10.57,0,17.91,7.73,17.91,19.67s-7.53,19.58-17.91,19.58S285.65,41.51,285.65,29.67Zm23.78,0c0-6.56-1.76-11.35-5.87-11.35s-5.87,4.79-5.87,11.35,1.76,11.06,5.87,11.06S309.43,36.23,309.43,29.67Zm30.24-18.3h9.21L312.66,78.51h-9.1Zm-8.8,49.13c0-11.84,7.63-19.57,17.91-19.57,10.66,0,18,7.63,18,19.57s-7.54,19.67-18,19.67C338.5,80.17,330.87,72.44,330.87,60.5Zm23.88,0c0-6.46-1.86-11.25-5.87-11.25-4.21,0-5.88,4.69-5.88,11.25s1.67,11.16,5.88,11.16S354.75,67.06,354.75,60.5Z"/><path class="cls-2" d="M10,94.65H26v26h.3c3.62-4.8,7.92-7.64,14.87-7.64,11,0,17.42,7.83,17.42,19v32.59H42.59V135.27c0-5.29-2.64-8.91-7.83-8.91S26,130.77,26,136.93v27.7H10Z"/><path class="cls-2" d="M63.44,150.63c0-11.06,8.81-14.38,19.18-15.75,9.39-1.18,12.72-2.16,12.72-5.58,0-3.23-2-5.38-6.85-5.38-5.09,0-7.63,2.25-8.12,6.45H65.69c.39-9.29,7.53-17.22,22.7-17.22,7.54,0,12.63,1.37,16.25,4.11,4.31,3.13,6.36,8,6.36,14.29V156.8c0,4,.39,6.26,1.76,7.14v.69H97.3c-.78-1.08-1.27-3-1.66-5.58h-.2c-2.94,4.21-7.34,6.85-14.88,6.85C70.58,165.9,63.44,160.52,63.44,150.63Zm32.29-3.91v-6a38.25,38.25,0,0,1-8.22,2.64c-6.16,1.37-8.71,2.94-8.71,6.75,0,4,2.94,5.58,6.85,5.58C91.62,155.72,95.73,152.1,95.73,146.72Z"/><path class="cls-2" d="M118.73,114.52H134.1v6.85h.29c3.72-5.38,8.52-8.32,15.46-8.32,11,0,17.43,7.83,17.43,19v32.59h-16V135.27c0-5.29-2.64-8.91-7.83-8.91s-8.81,4.41-8.81,10.57v27.7h-16Z"/><path class="cls-2" d="M172.27,139.57c0-15.65,9-26.52,21.92-26.52,7.05,0,11.06,2.94,14,7.15h.29V94.65h16v70H209.16v-6.75H209a16.53,16.53,0,0,1-14.78,8.32C181.37,166.2,172.27,156.31,172.27,139.57Zm36.6,0c0-8.41-3.42-14.48-10.37-14.48-6.37,0-10.08,5.87-10.08,14.29,0,8.71,3.71,14.19,9.88,14.19C205,153.57,208.87,147.79,208.87,139.57Z"/><path class="cls-2" d="M247.24,114.52H262.5v7.14h.3A16.71,16.71,0,0,1,278,113.05a15,15,0,0,1,14.09,8.81h.2c3.91-6.07,9.29-8.81,15.75-8.81,11.36,0,17,7.73,17,19v32.59h-16V134.88c0-5.39-2.25-8.52-7-8.52-5.09,0-7.92,4.21-7.92,10.18v28.09h-16V134.88c0-5.39-2.25-8.52-7-8.52-5,0-7.93,4.21-7.93,10.18v28.09H247.24Z"/><path class="cls-2" d="M329.94,150.63c0-11.06,8.81-14.38,19.18-15.75,9.39-1.18,12.72-2.16,12.72-5.58,0-3.23-2-5.38-6.85-5.38-5.09,0-7.63,2.25-8.12,6.45H332.19c.39-9.29,7.53-17.22,22.7-17.22,7.54,0,12.63,1.37,16.25,4.11,4.31,3.13,6.36,8,6.36,14.29V156.8c0,4,.39,6.26,1.76,7.14v.69H363.8c-.78-1.08-1.27-3-1.66-5.58h-.2c-2.94,4.21-7.34,6.85-14.88,6.85C337.08,165.9,329.94,160.52,329.94,150.63Zm32.29-3.91v-6a38.25,38.25,0,0,1-8.22,2.64c-6.16,1.37-8.71,2.94-8.71,6.75,0,4,2.94,5.58,6.85,5.58C358.12,155.72,362.23,152.1,362.23,146.72Z"/><path class="cls-2" d="M383,139.57c0-15.65,9-26.52,21.92-26.52,7.05,0,11.06,2.94,14,7.15h.29V94.65h16v70H419.88v-6.75h-.2a16.52,16.52,0,0,1-14.78,8.32C392.08,166.2,383,156.31,383,139.57Zm36.6,0c0-8.41-3.42-14.48-10.37-14.48-6.36,0-10.08,5.87-10.08,14.29,0,8.71,3.72,14.19,9.88,14.19C415.67,153.57,419.58,147.79,419.58,139.57Z"/><path class="cls-2" d="M440.53,139.48c0-15,10.47-26.43,25.74-26.43a24.64,24.64,0,0,1,17.13,6.27c6,5.48,8.9,14.19,8.8,24.36h-36c1,6.76,4.7,11,11.25,11,4.21,0,6.95-1.86,8.32-5h15.56a20.39,20.39,0,0,1-8.41,11.84,26.55,26.55,0,0,1-15.66,4.6C450.71,166.1,440.53,154.65,440.53,139.48Zm35.53-5.29c-.59-6-4.31-9.79-9.5-9.79-6.07,0-9.2,3.82-10.27,9.79Z"/><path class="cls-2" d="M50.91,200.64H67.15l5.48,20.75c.27,1,.55,2.11.81,3.2s.51,2.19.37,1.86c.57,2.25.75,3.08.15,1.93.85,2.34.92,2.7.4,2.7h.72s.07-.36.58-2.79c-.25,1.21-.07.36.41-1.91,0,.3.19-.82.46-1.95s.53-2.28.8-3.34l5.29-20.45h13.5l5.48,20.45c1.08,4.31,2.35,10.08,2.35,10.08h.2s1.27-5.77,2.35-9.78l5.58-20.75h15.75l-15.36,50.11h-15L91.62,228c-1.08-3.91-2.15-9-2.15-9h-.2s-1.17,5.09-2.25,9l-6,22.71H66.27l-1.74-5.69c1.52,4.95,1.38,4.52,0,0,1.06,3.44.85,2.77,0,0,.38,1.24.11.37-.19-.6Z"/><path class="cls-2" d="M127.34,225.6c0-15,10.48-26.43,25.74-26.43a24.65,24.65,0,0,1,17.13,6.26c6,5.49,8.91,14.2,8.81,24.37H143c1,6.76,4.7,11,11.26,11,4.21,0,7-1.86,8.32-5h15.56a20.4,20.4,0,0,1-8.42,11.85,26.55,26.55,0,0,1-15.66,4.6C137.52,252.22,127.34,240.77,127.34,225.6Zm35.53-5.29c-.59-6-4.31-9.79-9.49-9.79-6.07,0-9.2,3.82-10.28,9.79Z"/><path class="cls-2" d="M199.87,244.39h-.2v6.36H184.4v-70h16v25.55h.29c3.13-4.31,7.44-7.15,14.29-7.15,13,0,21.43,11.45,21.43,26.52,0,16.64-8.41,26.62-21.33,26.62C208.38,252.31,203,249.57,199.87,244.39Zm20.35-18.79c0-8.62-3.42-14.29-9.88-14.29-7.05,0-10.47,6.16-10.47,14.38s4.11,14,10.66,14C216.8,239.69,220.22,234.31,220.22,225.6Z"/><path class="cls-2" d="M238.72,234.5h15.07c.59,5,3.92,7.44,9.2,7.44,4.8,0,7.83-1.76,7.83-5,0-4.5-6.07-5-12.72-6.17-8.71-1.47-18-3.81-18-15.56,0-10.57,9.79-16.05,21.63-16.05,14.19,0,21.83,6.17,22.61,16.05H269.65c-.59-4.5-3.62-5.87-8-5.87-3.91,0-7,1.47-7,4.6,0,3.52,5.68,4,12,5.19,8.81,1.46,19.18,3.72,19.18,16.54,0,11-9.68,16.63-22.8,16.63C248.41,252.31,239.21,245.56,238.72,234.5Z"/><path class="cls-2" d="M291.08,180.77h16v12.92h-16Zm0,19.87h16v50.11h-16Z"/><path class="cls-2" d="M318.58,237.54V210.62h-6.65v-10h6.65V184.78h15.57v15.86h9.1v10h-9.1v23.49c0,3.92,2.15,4.89,5.57,4.89,1.37,0,2.94-.09,3.53-.09v11.64a37,37,0,0,1-8.71.78C325.24,251.33,318.58,248.3,318.58,237.54Z"/><path class="cls-2" d="M346.28,225.6c0-15,10.47-26.43,25.74-26.43a24.66,24.66,0,0,1,17.13,6.26c6,5.49,8.91,14.2,8.81,24.37h-36c1,6.76,4.7,11,11.26,11,4.21,0,6.95-1.86,8.32-5h15.56a20.44,20.44,0,0,1-8.42,11.85,26.55,26.55,0,0,1-15.66,4.6C356.46,252.22,346.28,240.77,346.28,225.6Zm35.53-5.29c-.59-6-4.31-9.79-9.49-9.79-6.07,0-9.2,3.82-10.28,9.79Z"/><path class="cls-2" d="M400.31,234.5h15.07c.59,5,3.91,7.44,9.2,7.44,4.8,0,7.83-1.76,7.83-5,0-4.5-6.07-5-12.72-6.17-8.71-1.47-18-3.81-18-15.56,0-10.57,9.78-16.05,21.63-16.05,14.19,0,21.82,6.17,22.61,16.05H431.23c-.58-4.5-3.62-5.87-8-5.87-3.92,0-6.95,1.47-6.95,4.6,0,3.52,5.68,4,12,5.19,8.81,1.46,19.18,3.72,19.18,16.54,0,11-9.69,16.63-22.8,16.63C410,252.31,400.8,245.56,400.31,234.5Z"/><path class="cls-3" d="M134.07,80a1.5,1.5,0,0,1-1.5-1.5V37.14H119.68a1.5,1.5,0,0,1-1.5-1.5V24.48A1.49,1.49,0,0,1,119.63,23c5.31-.18,14.5-2,16.39-12.38a1.5,1.5,0,0,1,1.48-1.23h13.11a1.5,1.5,0,0,1,1.5,1.5V78.51a1.5,1.5,0,0,1-1.5,1.5Z"/><path class="cls-4" d="M150.61,10.88V78.51H134.07V35.64H119.68V24.48c8.91-.29,16.15-4.5,17.82-13.6h13.11m0-3H137.5a3,3,0,0,0-2.95,2.46c-1.71,9.33-10.11,11-15,11.15a3,3,0,0,0-2.9,3V35.64a3,3,0,0,0,3,3h11.39V78.51a3,3,0,0,0,3,3h16.54a3,3,0,0,0,3-3V10.88a3,3,0,0,0-3-3Z"/><path class="cls-3" d="M188.78,81.57c-18.58,0-31.06-14.68-31.06-36.53S170.24,8.5,188.88,8.5C207.8,8.5,220,22.84,220,45,220,66.89,207.47,81.57,188.78,81.57Zm.1-57.25c-9.28,0-11.23,11.27-11.23,20.72s1.95,20.62,11.23,20.62C196.26,65.66,200,58.72,200,45,200,35.59,198.07,24.32,188.88,24.32Z"/><path class="cls-4" d="M188.88,10c18,0,29.65,13.7,29.65,35s-11.94,35-29.75,35c-17.42,0-29.56-13.7-29.56-35s12-35,29.66-35m0,57.16c9.1,0,12.62-8.91,12.62-22.12,0-13-3.62-22.22-12.62-22.22S176.15,31.92,176.15,45s3.72,22.12,12.73,22.12m0-60.16c-19.54,0-32.66,15.29-32.66,38s13.09,38,32.56,38,32.75-15.28,32.75-38c0-11.18-3-20.68-8.78-27.46S198.63,7,188.88,7Zm0,57.16c-8,0-9.73-10.4-9.73-19.12s1.69-19.22,9.73-19.22S198.5,36.27,198.5,45c0,12.68-3.24,19.12-9.62,19.12Z"/><path class="cls-3" d="M252.69,81.57c-18.58,0-31.06-14.68-31.06-36.53S234.15,8.5,252.79,8.5c18.92,0,31.15,14.34,31.15,36.54C283.94,66.89,271.38,81.57,252.69,81.57Zm.1-57.25c-9.28,0-11.23,11.27-11.23,20.72s1.95,20.62,11.23,20.62c7.38,0,11.12-6.94,11.12-20.62C263.91,35.59,262,24.32,252.79,24.32Z"/><path class="cls-4" d="M252.79,10c18,0,29.65,13.7,29.65,35s-11.94,35-29.75,35c-17.42,0-29.56-13.7-29.56-35s12-35,29.66-35m0,57.16c9.1,0,12.62-8.91,12.62-22.12,0-13-3.62-22.22-12.62-22.22S240.06,31.92,240.06,45s3.72,22.12,12.73,22.12m0-60.16c-19.54,0-32.66,15.29-32.66,38s13.09,38,32.56,38,32.75-15.28,32.75-38c0-11.18-3-20.68-8.78-27.46S262.54,7,252.79,7Zm0,57.16c-8,0-9.73-10.4-9.73-19.12s1.69-19.22,9.73-19.22,9.62,10.45,9.62,19.22c0,12.68-3.24,19.12-9.62,19.12Z"/><path class="cls-3" d="M349.78,81.67c-11.43,0-19.41-8.7-19.41-21.17s8-21.07,19.41-21.07c11.67,0,19.5,8.47,19.5,21.07S361.26,81.67,349.78,81.67Zm.09-30.92c-3.8,0-4.37,6.11-4.37,9.75,0,4.41.76,9.66,4.37,9.66,3.81,0,4.38-6,4.38-9.66C354.25,55.78,353.1,50.75,349.87,50.75ZM304.56,80a1.5,1.5,0,0,1-1.32-2.21l36.11-67.14a1.49,1.49,0,0,1,1.32-.79h9.2a1.51,1.51,0,0,1,1.33,2.21L315,79.22a1.49,1.49,0,0,1-1.32.79Zm0-29.26c-11.43,0-19.41-8.67-19.41-21.08s8-21.17,19.41-21.17C316.17,8.5,324,17,324,29.67,324,42.08,316,50.75,304.56,50.75Zm0-30.93c-3.95,0-4.37,6.89-4.37,9.85s.42,9.56,4.37,9.56,4.37-6,4.37-9.56C308.93,26.71,308.51,19.82,304.56,19.82Z"/><path class="cls-4" d="M304.56,10c10.57,0,17.91,7.73,17.91,19.67s-7.53,19.58-17.91,19.58-17.91-7.74-17.91-19.58S294.19,10,304.56,10m0,30.73c4.11,0,5.87-4.5,5.87-11.06s-1.76-11.35-5.87-11.35-5.87,4.79-5.87,11.35,1.76,11.06,5.87,11.06m45.32-29.36L313.66,78.51h-9.1l36.11-67.14h9.21m-.1,29.56c10.66,0,18,7.63,18,19.57s-7.54,19.67-18,19.67c-10.28,0-17.91-7.73-17.91-19.67s7.63-19.57,17.91-19.57m.1,30.73c4.11,0,5.87-4.6,5.87-11.16s-1.86-11.25-5.87-11.25c-4.21,0-5.88,4.69-5.88,11.25s1.67,11.16,5.88,11.16M304.56,7c-12.31,0-20.91,9.32-20.91,22.67s8.6,22.58,20.91,22.58a20.39,20.39,0,0,0,13.13-4.48L301.92,77.09a3,3,0,0,0,2.64,4.42h9.1a3,3,0,0,0,2.64-1.58L329.21,56a28.51,28.51,0,0,0-.34,4.5c0,13.35,8.59,22.67,20.91,22.67s21-9.32,21-22.67c0-13.5-8.45-22.57-21-22.57a20.38,20.38,0,0,0-13.32,4.62l16.06-29.76a3,3,0,0,0-2.64-4.42h-9.21A3,3,0,0,0,338,10L325.17,33.86a28.5,28.5,0,0,0,.3-4.19c0-13.35-8.6-22.67-20.91-22.67Zm45.32,7.37ZM304.56,37.73c-2.12,0-2.87-4.34-2.87-8.06,0-4.16.89-8.35,2.87-8.35s2.87,4.19,2.87,8.35c0,1.35-.13,8.06-2.87,8.06Zm45.32,30.93c-2.67,0-2.88-6.25-2.88-8.16,0-1.38.14-8.25,2.88-8.25,1.69,0,2.87,3.39,2.87,8.25,0,3.94-.76,8.16-2.87,8.16Z"/><path class="cls-3" d="M10,94.65H26v26h.3c3.62-4.8,7.92-7.64,14.87-7.64,11,0,17.42,7.83,17.42,19v32.59H42.59V135.27c0-5.29-2.64-8.91-7.83-8.91S26,130.77,26,136.93v27.7H10Z"/><path class="cls-3" d="M63.44,150.63c0-11.06,8.81-14.38,19.18-15.75,9.39-1.18,12.72-2.16,12.72-5.58,0-3.23-2-5.38-6.85-5.38-5.09,0-7.63,2.25-8.12,6.45H65.69c.39-9.29,7.53-17.22,22.7-17.22,7.54,0,12.63,1.37,16.25,4.11,4.31,3.13,6.36,8,6.36,14.29V156.8c0,4,.39,6.26,1.76,7.14v.69H97.3c-.78-1.08-1.27-3-1.66-5.58h-.2c-2.94,4.21-7.34,6.85-14.88,6.85C70.58,165.9,63.44,160.52,63.44,150.63Zm32.29-3.91v-6a38.25,38.25,0,0,1-8.22,2.64c-6.16,1.37-8.71,2.94-8.71,6.75,0,4,2.94,5.58,6.85,5.58C91.62,155.72,95.73,152.1,95.73,146.72Z"/><path class="cls-3" d="M118.73,114.52H134.1v6.85h.29c3.72-5.38,8.52-8.32,15.46-8.32,11,0,17.43,7.83,17.43,19v32.59h-16V135.27c0-5.29-2.64-8.91-7.83-8.91s-8.81,4.41-8.81,10.57v27.7h-16Z"/><path class="cls-3" d="M172.27,139.57c0-15.65,9-26.52,21.92-26.52,7.05,0,11.06,2.94,14,7.15h.29V94.65h16v70H209.16v-6.75H209a16.53,16.53,0,0,1-14.78,8.32C181.37,166.2,172.27,156.31,172.27,139.57Zm36.6,0c0-8.41-3.42-14.48-10.37-14.48-6.37,0-10.08,5.87-10.08,14.29,0,8.71,3.71,14.19,9.88,14.19C205,153.57,208.87,147.79,208.87,139.57Z"/><path class="cls-3" d="M247.24,114.52H262.5v7.14h.3A16.71,16.71,0,0,1,278,113.05a15,15,0,0,1,14.09,8.81h.2c3.91-6.07,9.29-8.81,15.75-8.81,11.36,0,17,7.73,17,19v32.59h-16V134.88c0-5.39-2.25-8.52-7-8.52-5.09,0-7.92,4.21-7.92,10.18v28.09h-16V134.88c0-5.39-2.25-8.52-7-8.52-5,0-7.93,4.21-7.93,10.18v28.09H247.24Z"/><path class="cls-3" d="M329.94,150.63c0-11.06,8.81-14.38,19.18-15.75,9.39-1.18,12.72-2.16,12.72-5.58,0-3.23-2-5.38-6.85-5.38-5.09,0-7.63,2.25-8.12,6.45H332.19c.39-9.29,7.53-17.22,22.7-17.22,7.54,0,12.63,1.37,16.25,4.11,4.31,3.13,6.36,8,6.36,14.29V156.8c0,4,.39,6.26,1.76,7.14v.69H363.8c-.78-1.08-1.27-3-1.66-5.58h-.2c-2.94,4.21-7.34,6.85-14.88,6.85C337.08,165.9,329.94,160.52,329.94,150.63Zm32.29-3.91v-6a38.25,38.25,0,0,1-8.22,2.64c-6.16,1.37-8.71,2.94-8.71,6.75,0,4,2.94,5.58,6.85,5.58C358.12,155.72,362.23,152.1,362.23,146.72Z"/><path class="cls-3" d="M383,139.57c0-15.65,9-26.52,21.92-26.52,7.05,0,11.06,2.94,14,7.15h.29V94.65h16v70H419.88v-6.75h-.2a16.52,16.52,0,0,1-14.78,8.32C392.08,166.2,383,156.31,383,139.57Zm36.6,0c0-8.41-3.42-14.48-10.37-14.48-6.36,0-10.08,5.87-10.08,14.29,0,8.71,3.72,14.19,9.88,14.19C415.67,153.57,419.58,147.79,419.58,139.57Z"/><path class="cls-3" d="M440.53,139.48c0-15,10.47-26.43,25.74-26.43a24.64,24.64,0,0,1,17.13,6.27c6,5.48,8.9,14.19,8.8,24.36h-36c1,6.76,4.7,11,11.25,11,4.21,0,6.95-1.86,8.32-5h15.56a20.39,20.39,0,0,1-8.41,11.84,26.55,26.55,0,0,1-15.66,4.6C450.71,166.1,440.53,154.65,440.53,139.48Zm35.53-5.29c-.59-6-4.31-9.79-9.5-9.79-6.07,0-9.2,3.82-10.27,9.79Z"/><path class="cls-3" d="M50.91,200.64H67.15l5.48,20.75c1.08,4,2.25,9.69,2.25,9.69h.2s1.17-5.78,2.25-10l5.29-20.45h13.5l5.48,20.45c1.08,4.31,2.35,10.08,2.35,10.08h.2s1.27-5.77,2.35-9.78l5.58-20.75h15.75l-15.36,50.11h-15L91.62,228c-1.08-3.91-2.15-9-2.15-9h-.2s-1.17,5.09-2.25,9l-6,22.71H66.27Z"/><path class="cls-3" d="M127.34,225.6c0-15,10.48-26.43,25.74-26.43a24.65,24.65,0,0,1,17.13,6.26c6,5.49,8.91,14.2,8.81,24.37H143c1,6.76,4.7,11,11.26,11,4.21,0,7-1.86,8.32-5h15.56a20.4,20.4,0,0,1-8.42,11.85,26.55,26.55,0,0,1-15.66,4.6C137.52,252.22,127.34,240.77,127.34,225.6Zm35.53-5.29c-.59-6-4.31-9.79-9.49-9.79-6.07,0-9.2,3.82-10.28,9.79Z"/><path class="cls-3" d="M199.87,244.39h-.2v6.36H184.4v-70h16v25.55h.29c3.13-4.31,7.44-7.15,14.29-7.15,13,0,21.43,11.45,21.43,26.52,0,16.64-8.41,26.62-21.33,26.62C208.38,252.31,203,249.57,199.87,244.39Zm20.35-18.79c0-8.62-3.42-14.29-9.88-14.29-7.05,0-10.47,6.16-10.47,14.38s4.11,14,10.66,14C216.8,239.69,220.22,234.31,220.22,225.6Z"/><path class="cls-3" d="M238.72,234.5h15.07c.59,5,3.92,7.44,9.2,7.44,4.8,0,7.83-1.76,7.83-5,0-4.5-6.07-5-12.72-6.17-8.71-1.47-18-3.81-18-15.56,0-10.57,9.79-16.05,21.63-16.05,14.19,0,21.83,6.17,22.61,16.05H269.65c-.59-4.5-3.62-5.87-8-5.87-3.91,0-7,1.47-7,4.6,0,3.52,5.68,4,12,5.19,8.81,1.46,19.18,3.72,19.18,16.54,0,11-9.68,16.63-22.8,16.63C248.41,252.31,239.21,245.56,238.72,234.5Z"/><path class="cls-3" d="M291.08,180.77h16v12.92h-16Zm0,19.87h16v50.11h-16Z"/><path class="cls-3" d="M318.58,237.54V210.62h-6.65v-10h6.65V184.78h15.57v15.86h9.1v10h-9.1v23.49c0,3.92,2.15,4.89,5.57,4.89,1.37,0,2.94-.09,3.53-.09v11.64a37,37,0,0,1-8.71.78C325.24,251.33,318.58,248.3,318.58,237.54Z"/><path class="cls-3" d="M346.28,225.6c0-15,10.47-26.43,25.74-26.43a24.66,24.66,0,0,1,17.13,6.26c6,5.49,8.91,14.2,8.81,24.37h-36c1,6.76,4.7,11,11.26,11,4.21,0,6.95-1.86,8.32-5h15.56a20.44,20.44,0,0,1-8.42,11.85,26.55,26.55,0,0,1-15.66,4.6C356.46,252.22,346.28,240.77,346.28,225.6Zm35.53-5.29c-.59-6-4.31-9.79-9.49-9.79-6.07,0-9.2,3.82-10.28,9.79Z"/><path class="cls-3" d="M400.31,234.5h15.07c.59,5,3.91,7.44,9.2,7.44,4.8,0,7.83-1.76,7.83-5,0-4.5-6.07-5-12.72-6.17-8.71-1.47-18-3.81-18-15.56,0-10.57,9.78-16.05,21.63-16.05,14.19,0,21.82,6.17,22.61,16.05H431.23c-.58-4.5-3.62-5.87-8-5.87-3.92,0-6.95,1.47-6.95,4.6,0,3.52,5.68,4,12,5.19,8.81,1.46,19.18,3.72,19.18,16.54,0,11-9.69,16.63-22.8,16.63C410,252.31,400.8,245.56,400.31,234.5Z"/></g></g></svg>